<?xml version="1.0" encoding="UTF-8" standalone="no"?>
<svg
   id="Capa_1"
   data-name="Capa 1"
   viewBox="0 0 90.000002 90"
   version="1.1"
   sodipodi:docname="equo_logo.svg"
   width="90"
   height="90"
   inkscape:version="1.1 (c4e8f9e, 2021-05-24)"
   xmlns:inkscape="http://www.inkscape.org/namespaces/inkscape"
   xmlns:sodipodi="http://sodipodi.sourceforge.net/DTD/sodipodi-0.dtd"
   xmlns="http://www.w3.org/2000/svg"
   xmlns:svg="http://www.w3.org/2000/svg">
  <sodipodi:namedview
     id="namedview17"
     pagecolor="#ffffff"
     bordercolor="#666666"
     borderopacity="1.0"
     inkscape:pageshadow="2"
     inkscape:pageopacity="0.0"
     inkscape:pagecheckerboard="0"
     showgrid="false"
     width="90px"
     inkscape:zoom="1.8374202"
     inkscape:cx="143.67971"
     inkscape:cy="85.173769"
     inkscape:window-width="1296"
     inkscape:window-height="1003"
     inkscape:window-x="0"
     inkscape:window-y="25"
     inkscape:window-maximized="0"
     inkscape:current-layer="Capa_1" />
  <defs
     id="defs4">
    <style
       id="style2">.cls-1{fill:#3884ff;}</style>
  </defs>
  <path
     class="cls-1"
     d="M 88.883013,47.149914 A 2.2499519,2.2411972 0 0 0 88.452171,46.741942 L 51.075312,19.455499 c -1.388268,-0.805348 -0.797855,-1.398761 -0.356375,-2.119335 0,0 6.22327,-9.9608768 6.287099,-10.0668436 C 57.378368,6.8136633 59.13365,4.6201512 57.899633,3.0306496 56.665617,1.4411481 54.298647,0.91131422 53.197606,0.74176739 A 44.780957,44.606712 0 0 0 45.171183,0 C 13.576115,0 -10.444648,32.319865 4.6029027,65.577536 A 39.759788,39.60508 0 0 0 24.283333,85.292653 c 16.414542,7.475956 32.584408,5.510272 44.828827,-2.119335 l 0.372332,-0.238426 a 2.2020805,2.1935121 0 0 0 1.063807,-1.589501 c 0.196804,-1.939192 -2.170166,-3.449218 -5.010531,-1.218618 a 2.1648473,2.1564238 0 0 1 -0.313823,0.211934 c -10.744451,6.003017 -24.467561,7.3329 -38.456623,1.059667 A 36.009868,35.869752 0 0 1 8.7198357,63.537675 C -4.9500844,33.496096 16.740941,4.2810575 45.304159,4.2810575 c 0.558499,0 7.920043,0.3708837 7.686006,1.2186179 -0.106381,0.3655853 -8.366842,12.0431236 -8.366842,12.0431236 -1.531882,2.19881 1.664858,3.804207 3.090359,4.853278 0,0 34.94606,25.389638 35.148183,25.516798 2.186124,1.398761 2.659518,1.939192 2.430799,4.185687 -0.409565,4.153898 -3.297801,10.066844 -4.866917,12.843173 -0.319142,0.566922 -1.228697,3.179003 -4.069062,1.218618 C 76.11201,65.990806 69.096202,61.25939 59.867676,55.092124 a 7.8455768,7.8150493 0 0 0 -4.787131,-1.351077 c -1.632944,0.121862 -5.319034,1.727259 -6.622198,2.039861 a 27.39835,27.291742 0 0 1 -5.132869,0.614607 17.616644,17.548097 0 0 1 -11.074231,-3.608169 c -3.813748,-2.882296 -6.627518,-7.751469 -6.771132,-15.550623 0.319143,-4.87977 -4.255228,-3.798909 -4.255228,-0.249022 0,0.259619 -0.03191,0.529834 0,0.805347 0.824451,21.627818 18.228334,25.357848 28.3345,22.385481 0.797856,-0.238426 3.191422,-1.197425 3.781833,-1.30869 a 7.1806974,7.152757 0 0 1 5.260526,0.853032 c 5.489244,3.708837 12.765684,8.880016 17.063465,11.693434 1.404225,0.92191 2.515903,1.313987 3.436096,1.287496 a 2.2446328,2.2358988 0 0 0 1.686135,-0.916613 c 4.749898,-6.151371 8.201952,-13.123984 9.196611,-21.219845 a 2.6914318,2.6809593 0 0 0 0,-0.582818 5.6169011,5.5950454 0 0 0 -1.10104,-2.834611 z"
     id="path14"
     style="stroke-width:0.530868" />
</svg>
